<?xml version="1.0" encoding="UTF-8" standalone="no"?>
<!DOCTYPE svg PUBLIC "-//W3C//DTD SVG 1.1//EN" "http://www.w3.org/Graphics/SVG/1.1/DTD/svg11.dtd">
<svg width="100%" height="100%" viewBox="0 0 24 24" version="1.1" xmlns="http://www.w3.org/2000/svg" xmlns:xlink="http://www.w3.org/1999/xlink" xml:space="preserve" xmlns:serif="http://www.serif.com/" style="fill-rule:evenodd;clip-rule:evenodd;stroke-linejoin:round;stroke-miterlimit:2;">
    <path d="M5,17c-1.104,0 -2,0.896 -2,2c0,1.104 0.896,2 2,2c1.104,0 2,-0.896 2,-2c0,-1.104 -0.896,-2 -2,-2Zm-1,-5c4.389,-0 8,3.611 8,8c0,0.552 0.448,1 1,1c0.552,-0 1,-0.448 1,-1c-0,-5.486 -4.514,-10 -10,-10c-0.552,0 -1,0.448 -1,1c0,0.552 0.448,1 1,1Zm0,-7c8.229,-0 15,6.771 15,15c0,0.552 0.448,1 1,1c0.552,-0 1,-0.448 1,-1c-0,-9.326 -7.674,-17 -17,-17c-0.552,0 -1,0.448 -1,1c0,0.552 0.448,1 1,1Z"/>
</svg>
